<?xml version="1.0" encoding="UTF-8"?>
<svg width="32px" height="20px" viewBox="0 0 32 20" version="1.1" xmlns="http://www.w3.org/2000/svg" xmlns:xlink="http://www.w3.org/1999/xlink">
    <!-- Generator: Sketch 47.1 (45422) - http://www.bohemiancoding.com/sketch -->
    <title>card-logo-amex</title>
    <desc>Created with Sketch.</desc>
    <defs></defs>
    <g id="Checkout-+-Added-&quot;Secure&quot;-Elements" stroke="none" stroke-width="1" fill="none" fill-rule="evenodd">
        <g id="Large/Medium-Checkout---Added-&quot;Trust&quot;-Elements" transform="translate(-608.000000, -991.000000)" fill-rule="nonzero">
            <g id="Form-Empty" transform="translate(221.000000, 268.000000)">
                <g id="Group-2" transform="translate(313.000000, 723.000000)">
                    <g id="card-logo-amex" transform="translate(74.000000, 0.000000)">
                        <path d="M29.4320988,2.02293374e-07 C27.8518519,3.53289176e-07 11.121142,-3.20636746e-07 1.77777778,2.02293374e-07 C0.987654321,2.46515064e-07 0.197530864,0.800000202 0.197530864,1.6000002 L0.197530864,17.6000002 C0.197530773,19.2000002 0.987654321,20.0000002 2.56790123,20.0000002 C11.3823624,20.0000002 27.8518519,20.0000004 29.4320988,20.0000002 C31.0123457,20.0000002 31.8024691,19.2000002 31.8024691,17.6000002 L31.8024691,2.4000002 C31.8024691,0.800000202 31.0123457,2.02293374e-07 29.4320988,2.02293374e-07 Z" id="Rectangle-1" fill="#306FC5"></path>
                        <path d="M2.86811425,7.3250672 L2.25600913,5.81486792 L1.64740239,7.3250672 L2.86811425,7.3250672 Z M16.3527088,6.72370692 C16.2298138,6.79923402 16.0844614,6.80174778 15.910332,6.80174778 L14.8239131,6.80174778 L14.8239131,5.9603233 L15.9251155,5.9603233 C16.080963,5.9603233 16.2435817,5.96740754 16.3492104,6.0286519 C16.4652215,6.0838404 16.5369949,6.2013016 16.5369949,6.36355348 C16.5369949,6.52911894 16.4687199,6.66234828 16.3527088,6.72370692 C16.3527088,6.72370692 16.4687199,6.66234828 16.3527088,6.72370692 L16.3527088,6.72370692 L16.3527088,6.72370692 Z M24.1031062,7.3250672 L23.4842301,5.81486792 L22.8687394,7.3250672 L24.1031062,7.3250672 L24.1031062,7.3250672 L24.1031062,7.3250672 L24.1031062,7.3250672 Z M9.65589059,8.95969764 L8.73908713,8.95969764 L8.73570159,5.99277368 L7.438928,8.95969764 L6.65370908,8.95969764 L5.35354995,5.99014564 L5.35354995,8.95969764 L3.53461367,8.95969764 L3.19098165,8.11473104 L1.32893619,8.11473104 L0.981805782,8.95969764 L0.0104951653,8.95969764 L1.6119671,5.17145928 L2.94067759,5.17145928 L4.4616866,8.75813968 L4.4616866,5.17145928 L5.92130453,5.17145928 L7.09168472,7.74132322 L8.16681849,5.17145928 L9.65577774,5.17145928 L9.65577774,8.95969764 L9.65577774,8.95969764 L9.65589059,8.95969764 L9.65589059,8.95969764 Z M13.3099009,8.95969764 L10.32239,8.95969764 L10.32239,5.17145928 L13.3099009,5.17145928 L13.3099009,5.9603233 L11.2167361,5.9603233 L11.2167361,6.6431523 L13.2596821,6.6431523 L13.2596821,7.41967602 L11.2167361,7.41967602 L11.2167361,8.17620394 L13.3099009,8.17620394 L13.3099009,8.95969764 L13.3099009,8.95969764 L13.3099009,8.95969764 L13.3099009,8.95969764 Z M17.5221862,6.1917036 C17.5221862,6.7956919 17.1240471,7.1077411 16.8920249,7.20143584 C17.087709,7.27684868 17.2548416,7.41007802 17.3344018,7.520455 C17.4606823,7.70887284 17.4824626,7.8771806 17.4824626,8.21551002 L17.4824626,8.95969764 L16.5804426,8.95969764 L16.5770571,8.48196872 C16.5770571,8.25401628 16.5986117,7.92619894 16.4358802,7.74395124 C16.3051985,7.6107219 16.106016,7.58181364 15.7840514,7.58181364 L14.8240259,7.58181364 L14.8240259,8.95969764 L13.9297927,8.95969764 L13.9297927,5.17145928 L15.9867323,5.17145928 C16.4437798,5.17145928 16.7805279,5.1836853 17.0696528,5.35290714 C17.3525708,5.52212898 17.5221862,5.76916318 17.5221862,6.1917036 C17.5221862,6.1917036 17.5221862,5.76916318 17.5221862,6.1917036 L17.5221862,6.1917036 L17.5221862,6.1917036 Z M18.9533656,8.95969764 L18.0408505,8.95969764 L18.0408505,5.17145928 L18.9533656,5.17145928 L18.9533656,8.95969764 L18.9533656,8.95969764 L18.9533656,8.95969764 L18.9533656,8.95969764 Z M29.5397148,8.95969764 L28.2723953,8.95969764 L26.5772569,6.11640502 L26.5772569,8.95969764 L24.7559506,8.95969764 L24.4079174,8.11473104 L22.5501604,8.11473104 L22.2125094,8.95969764 L21.1660399,8.95969764 C20.7313369,8.95969764 20.1809614,8.86234652 19.8692664,8.54069934 C19.5549756,8.21905214 19.3914542,7.7833716 19.3914542,7.09448672 C19.3914542,6.53266106 19.4891833,6.0190539 19.8735546,5.6131957 C20.1626795,5.31085878 20.6154386,5.17145928 21.2317193,5.17145928 L22.0975141,5.17145928 L22.0975141,5.98317568 L21.2498884,5.98317568 C20.9235226,5.98317568 20.7392365,6.03230828 20.5617215,6.207586 C20.4092595,6.3670956 20.3046463,6.6686327 20.3046463,7.06569272 C20.3046463,7.47155092 20.3843194,7.7641756 20.5505491,7.95533572 C20.6882278,8.1052473 20.938419,8.15072354 21.1738266,8.15072354 L21.5754641,8.15072354 L22.8358997,5.17157354 L24.1758953,5.17157354 L25.6900203,8.75471184 L25.6900203,5.17157354 L27.0516834,5.17157354 L28.6237011,7.80988034 L28.6237011,5.17157354 L29.5397148,5.17157354 L29.5397148,8.95969764 L29.5397148,8.95969764 L29.5397148,8.95969764 L29.5397148,8.95969764 Z M0.000112851239,9.703771 L1.52811863,9.703771 L1.87265347,8.86234652 L2.64399168,8.86234652 L2.9876237,9.703771 L5.99409357,9.703771 L5.99409357,9.06047662 L6.26245383,9.70651328 L7.82318647,9.70651328 L8.09154671,9.05087862 L8.09154671,9.703771 L15.5632016,9.703771 L15.5597032,8.3225734 L15.7042656,8.3225734 C15.8054932,8.32611552 15.8350602,8.33559926 15.8350602,8.5048211 L15.8350602,9.703771 L19.6994252,9.703771 L19.6994252,9.38223808 C20.0111204,9.55134566 20.4959293,9.703771 21.1338773,9.703771 L22.7596122,9.703771 L23.1075326,8.86234652 L23.8788709,8.86234652 L24.2191172,9.703771 L27.3519806,9.703771 L27.3519806,8.90450916 L27.8264071,9.703771 L30.3368958,9.703771 L30.3368958,4.42030168 L27.8523631,4.42030168 L27.8523631,5.0442858 L27.5044427,4.42030168 L24.9550202,4.42030168 L24.9550202,5.0442858 L24.6355384,4.42030168 L21.1918829,4.42030168 C20.6154386,4.42030168 20.1087366,4.5017704 19.6994252,4.72880876 L19.6994252,4.42030168 L17.3230038,4.42030168 L17.3230038,4.72880876 C17.0625431,4.49480042 16.707626,4.42030168 16.3129852,4.42030168 L7.63100081,4.42030168 L7.0484627,5.78493132 L6.45023828,4.42030168 L3.71562706,4.42030168 L3.71562706,5.0442858 L3.41521705,4.42030168 L1.08303334,4.42030168 L0,6.93234912 L0,9.703771 L0.000112851239,9.703771 Z M31.8102817,12.4933605 L30.1803712,12.4933605 C30.0176397,12.4933605 29.9095283,12.4995307 29.8184573,12.5618034 C29.7241136,12.623162 29.6877756,12.7142288 29.6877756,12.8344322 C29.6877756,12.9773739 29.7674485,13.0746107 29.8833468,13.1166591 C29.9776903,13.1499093 30.0790307,13.1596216 30.2279945,13.1596216 L30.7126906,13.1727617 C31.2017879,13.1849877 31.5282665,13.2701128 31.7273359,13.4777266 C31.7635613,13.5066349 31.7853414,13.5390853 31.8102817,13.5715356 L31.8102817,12.4933605 Z M31.8102817,14.991468 C31.593043,15.3131152 31.1697381,15.4761669 30.5966795,15.4761669 L28.869604,15.4761669 L28.869604,14.6636507 L30.5896826,14.6636507 C30.7603137,14.6636507 30.8797102,14.6409126 30.9515966,14.5698417 C31.0138904,14.5112253 31.0573381,14.4261002 31.0573381,14.3226932 C31.0573381,14.2123163 31.0138904,14.1246774 30.9480982,14.0721169 C30.8832087,14.0143004 30.7887522,13.9880202 30.6330175,13.9880202 C29.7932915,13.9591119 28.7456934,14.0143004 28.7456934,12.8152363 C28.7456934,12.2656366 29.0903411,11.6871287 30.028812,11.6871287 L31.8101687,11.6871287 L31.8101687,10.9332288 L30.1550925,10.9332288 C29.6556128,10.9332288 29.2927962,11.0543464 29.0358339,11.24265 L29.0358339,10.9332288 L26.5877519,10.9332288 C26.196271,10.9332288 25.7367407,11.031494 25.5193892,11.24265 L25.5193892,10.9332288 L21.147758,10.9332288 L21.147758,11.24265 C20.7998376,10.9885316 20.2127854,10.9332288 19.9418297,10.9332288 L17.0582548,10.9332288 L17.0582548,11.24265 C16.7830106,10.9727634 16.1709055,10.9332288 15.7978193,10.9332288 L12.5706124,10.9332288 L11.8321139,11.7424315 L11.1404487,10.9332288 L6.31966939,10.9332288 L6.31966939,16.2203545 L11.0497162,16.2203545 L11.8106722,15.3983546 L12.5275032,16.2203545 L15.4431278,16.2229826 L15.4431278,14.979242 L15.72977,14.979242 C16.116624,14.9852979 16.5728816,14.9695297 16.975422,14.7933379 L16.975422,16.2202403 L19.3802819,16.2202403 L19.3802819,14.842242 L19.496293,14.842242 C19.6443538,14.842242 19.6589116,14.8484121 19.6589116,14.9982095 L19.6589116,16.220126 L26.9644494,16.220126 C27.428268,16.220126 27.9130769,16.0999225 28.18155,15.8817966 L28.18155,16.220126 L30.4988373,16.220126 C30.9810507,16.220126 31.4519789,16.1516831 31.8102817,15.9764054 L31.8102817,14.991468 L31.8102817,14.991468 L31.8102817,14.991468 L31.8102817,14.991468 Z M28.242941,13.4777266 C28.4170706,13.6602029 28.5103986,13.8905548 28.5103986,14.2805306 C28.5103986,15.0956749 28.0074206,15.4761669 27.1055135,15.4761669 L25.3636545,15.4761669 L25.3636545,14.6636507 L27.0985167,14.6636507 C27.2681321,14.6636507 27.3884316,14.6409126 27.4638161,14.5698417 C27.5253201,14.5112253 27.5694449,14.4261002 27.5694449,14.3226932 C27.5694449,14.2123163 27.5217088,14.1246774 27.4603178,14.0721169 C27.3919299,14.0143004 27.2975864,13.9880202 27.1418517,13.9880202 C26.3055111,13.9591119 25.2581387,14.0143004 25.2581387,12.8152363 C25.2581387,12.2656366 25.5991751,11.6871287 26.5367433,11.6871287 L28.3296109,11.6871287 L28.3296109,12.4935891 L26.6890923,12.4935891 C26.5264737,12.4935891 26.4207322,12.4997592 26.3307897,12.5620319 C26.2328348,12.6233906 26.1964968,12.7144573 26.1964968,12.8346608 C26.1964968,12.9776024 26.2796681,13.0748392 26.3921807,13.1168876 C26.4865244,13.1501378 26.5878649,13.1598501 26.7402139,13.1598501 L27.2216373,13.1729902 C27.7071234,13.1849877 28.0403731,13.2699985 28.242941,13.4777266 C28.242941,13.4777266 28.0403731,13.2699985 28.242941,13.4777266 L28.242941,13.4777266 L28.242941,13.4777266 Z M20.1731747,13.2437183 C20.0535524,13.315589 19.9056043,13.3217592 19.7315878,13.3217592 L18.6451689,13.3217592 L18.6451689,12.4707367 L19.7463713,12.4707367 C19.9056043,12.4707367 20.0649503,12.4741645 20.1731747,12.5391796 C20.289073,12.6005382 20.3583637,12.7178851 20.3583637,12.8800227 C20.3583637,13.0421603 20.289073,13.1727617 20.1731747,13.2437183 C20.1731747,13.2437183 20.289073,13.1727617 20.1731747,13.2437183 L20.1731747,13.2437183 L20.1731747,13.2437183 Z M20.7132808,13.7152771 C20.9123502,13.7896616 21.0750819,13.9230052 21.1513693,14.0333822 C21.2776498,14.2183721 21.2959317,14.3910218 21.2995429,14.7250093 L21.2995429,15.4761669 L20.4016984,15.4761669 L20.4016984,15.0020944 C20.4016984,14.7741419 20.4233659,14.4366123 20.257136,14.2604205 C20.1264543,14.1246774 19.9272719,14.092227 19.6010189,14.092227 L18.6452818,14.092227 L18.6452818,15.4761669 L17.7466473,15.4761669 L17.7466473,11.6870145 L19.8113736,11.6870145 C20.2641327,11.6870145 20.593884,11.7072388 20.8874102,11.8658343 C21.1696512,12.038484 21.3471662,12.2750061 21.3471662,12.7072588 C21.3470532,13.3120469 20.9486884,13.6206682 20.7132808,13.7152771 C20.7132808,13.7152771 20.9486884,13.6206682 20.7132808,13.7152771 L20.7132808,13.7152771 L20.7132808,13.7152771 Z M21.8430345,11.6870145 L24.8278368,11.6870145 L24.8278368,12.4706224 L22.7336565,12.4706224 L22.7336565,13.1595073 L24.7767153,13.1595073 L24.7767153,13.9326032 L22.7336565,13.9326032 L22.7336565,14.6865031 L24.8278368,14.6899309 L24.8278368,15.4761669 L21.8430345,15.4761669 L21.8430345,11.6870145 L21.8430345,11.6870145 L21.8430345,11.6870145 L21.8430345,11.6870145 Z M15.8092173,13.4356783 L14.6535077,13.4356783 L14.6535077,12.4707367 L15.8195996,12.4707367 C16.142467,12.4707367 16.3665895,12.603966 16.3665895,12.9353255 C16.3665895,13.2630286 16.1528493,13.4356783 15.8092173,13.4356783 L15.8092173,13.4356783 L15.8092173,13.4356783 L15.8092173,13.4356783 Z M13.7627729,15.1315531 L12.3897119,13.5881036 L13.7627729,12.0936725 L13.7627729,15.1315531 L13.7627729,15.1315531 L13.7627729,15.1315531 L13.7627729,15.1315531 Z M10.2168741,14.6865031 L8.01808055,14.6865031 L8.01808055,13.9326032 L9.98146641,13.9326032 L9.98146641,13.1595073 L8.01808055,13.1595073 L8.01808055,12.4706224 L10.260209,12.4706224 L11.2384035,13.5748492 L10.2168741,14.6865031 L10.2168741,14.6865031 L10.2168741,14.6865031 L10.2168741,14.6865031 Z M17.3267279,12.9353255 C17.3267279,13.9879059 16.5511013,14.205232 15.7693808,14.205232 L14.6535077,14.205232 L14.6535077,15.4761669 L12.9152601,15.4761669 L11.8140577,14.2218 L10.6696333,15.4761669 L7.12723287,15.4761669 L7.12723287,11.6870145 L10.7241404,11.6870145 L11.82444,12.9290411 L12.9619805,11.6870145 L15.8195996,11.6870145 C16.529321,11.6870145 17.3267279,11.8859444 17.3267279,12.9353255 C17.3267279,12.9353255 17.3267279,11.8859444 17.3267279,12.9353255 L17.3267279,12.9353255 L17.3267279,12.9353255 Z" id="Shape" fill="#FFFFFF"></path>
                    </g>
                </g>
            </g>
        </g>
    </g>
</svg>