<?xml version="1.0" encoding="UTF-8"?>
<svg width="32px" height="20px" viewBox="0 0 32 20" version="1.1" xmlns="http://www.w3.org/2000/svg" xmlns:xlink="http://www.w3.org/1999/xlink">
    <!-- Generator: Sketch 63.1 (92452) - https://sketch.com -->
    <title>card-logo-discover</title>
    <desc>Created with Sketch.</desc>
    <g id="Symbols" stroke="none" stroke-width="1" fill="none" fill-rule="evenodd">
        <g id="US-Credit-Cards" transform="translate(-111.000000, 0.000000)">
            <g id="card-logo-discover" transform="translate(111.000000, 0.000000)">
                <path d="M30.0055563,0 L1.99458651,0 C0.893015831,0 7.14285678e-05,0.812006892 7.14285678e-05,1.81372994 L7.14285678e-05,18.1862701 C7.14285678e-05,19.1878117 0.893015831,20 1.99458651,20 L30.0055563,20 C31.1069276,20 32.0000714,19.1878117 32.0000714,18.1862701 L32.0000714,1.81917113 C32.0000714,0.817448082 31.1069276,0.00544118981 30.0055563,0.00544118981" id="Fill-1" fill="#E6E6E6"></path>
                <path d="M32,13 C30.4774226,13.9278552 23.5497047,17.8652482 12,20 L30.1800201,20 C31.1820071,20 31.9945564,19.2334067 31.9945564,18.28809 L32,13 Z" id="Fill-4" fill="#F58220"></path>
                <path d="M16.9678214,7.00371142 C15.8369286,6.98388999 14.9035357,7.88353284 14.8819286,9.0144257 C14.8415714,10.1646043 15.7412143,11.1297828 16.8913929,11.1703186 C18.04175,11.2108543 19.0069286,10.3110328 19.0474643,9.16085427 C19.0878214,8.0106757 18.1881786,7.04531856 17.038,7.00496142 C17.0146071,7.00406856 16.9912143,7.00371142 16.9678214,7.00371142" id="Fill-7" fill="#F58220"></path>
                <path d="M6.01410714,10.0162293 C5.77303571,10.2340864 5.46232143,10.3287293 4.96946429,10.3287293 L4.76232143,10.3287293 L4.76232143,7.73944356 L4.97660714,7.73944356 C5.46946429,7.73944356 5.76964286,7.82694356 6.02125,8.05551499 C6.2925,8.30622927 6.44535714,8.65944356 6.44267857,9.02872927 C6.44375,9.40301499 6.28767857,9.76069356 6.01232143,10.0144436 L6.01410714,10.0162293 Z M5.12125,7.07694356 L4,7.07694356 L4,10.9894436 L5.11607143,10.9894436 C5.62142857,11.0171221 6.11910714,10.8562293 6.51232143,10.5376578 C6.96160714,10.1671221 7.22321429,9.61640784 7.22660714,9.03408642 C7.22142857,7.87872927 6.35714286,7.07694356 5.12125,7.07694356 L5.12125,7.07694356 Z" id="Fill-9" fill="#58595B"></path>
                <polygon id="Fill-11" fill="#58595B" points="7.57489286 10.9894257 8.33757143 10.9894257 8.33757143 7.0769257 7.57489286 7.0769257"></polygon>
                <path d="M10.203375,8.57685427 C9.744625,8.39828284 9.61069643,8.29488999 9.61069643,8.08399713 C9.61069643,7.83756856 9.84998214,7.65024713 10.178375,7.65024713 C10.422125,7.65488999 10.6498036,7.77149713 10.7962321,7.96631856 L11.194625,7.44488999 C10.8781964,7.16256856 10.468375,7.0079257 10.0444464,7.01074395 C9.353375,7.01074395 8.82480357,7.49310427 8.82480357,8.1304257 C8.82480357,8.66613999 9.07123214,8.94649713 9.78748214,9.20185427 C9.97266071,9.25899713 10.152125,9.33363999 10.3231964,9.42506856 C10.4656964,9.5104257 10.5524821,9.66453284 10.5515893,9.83060427 C10.5492679,10.1381043 10.2980179,10.3857828 9.99033929,10.3834614 C9.97980357,10.3832828 9.96926786,10.3829257 9.95891071,10.3822114 C9.60301786,10.3875686 9.277125,10.1834614 9.12676786,9.86078284 L8.63391071,10.3359614 C8.91658929,10.8120328 9.43551786,11.0970328 9.98926786,11.0806043 C10.7819464,11.0806043 11.3374821,10.54489 11.3374821,9.79471142 C11.3285536,9.17685427 11.0712321,8.89471142 10.203375,8.57685427" id="Fill-13" fill="#58595B"></path>
                <path d="M11.5695179,9.03408642 C11.5604107,10.1535507 12.4604107,11.0681936 13.579875,11.0771221 C13.5982679,11.0773007 13.6170179,11.0773007 13.6355893,11.076765 C13.9682679,11.0774793 14.2963036,10.999265 14.5927321,10.8483721 L14.5927321,9.95551499 C14.3618393,10.2256936 14.024875,10.3821221 13.6695179,10.3840864 C12.9638036,10.4049793 12.3746964,9.84962213 12.3538036,9.14372927 C12.3527321,9.10712213 12.3532679,9.07051499 12.3552321,9.03408642 C12.332375,8.31551499 12.8966607,7.71444356 13.6150536,7.69158642 C13.6213036,7.69140784 13.6275536,7.69122927 13.6339821,7.69122927 C14.0014821,7.69372927 14.3500536,7.85444356 14.5909464,8.1323007 L14.5909464,7.23944356 C14.3030893,7.08176499 13.979875,6.99962213 13.6516607,7.00015784 C12.5155893,6.98622927 11.5834464,7.89587213 11.5695179,9.03194356 L11.5695179,9.03408642 Z" id="Fill-14" fill="#58595B"></path>
                <polygon id="Fill-15" fill="#58595B" points="20.7767679 9.70547927 19.7319464 7.07690784 18.8980179 7.07690784 20.5605179 11.0894078 20.9714107 11.0894078 22.6606964 7.07690784 21.8339107 7.07690784"></polygon>
                <polygon id="Fill-16" fill="#58595B" points="23.0089107 10.9894793 25.1730179 10.9894793 25.1730179 10.3269793 23.7714107 10.3269793 23.7714107 9.26983642 25.1194464 9.26983642 25.1194464 8.60733642 23.7714107 8.60733642 23.7714107 7.73947927 25.1730179 7.73947927 25.1730179 7.07697927 23.0089107 7.07697927"></polygon>
                <path d="M26.6588036,8.87871142 L26.4409464,8.87871142 L26.4409464,7.69299713 L26.674875,7.69299713 C27.1516607,7.69299713 27.4088036,7.89299713 27.4088036,8.27335427 C27.4088036,8.65371142 27.1516607,8.8769257 26.6625536,8.8769257 L26.6588036,8.87871142 Z M28.1909464,8.23228284 C28.1909464,7.49835427 27.687375,7.0769257 26.8052321,7.0769257 L25.6730893,7.0769257 L25.6730893,10.9894257 L26.437375,10.9894257 L26.437375,9.41621142 L26.537375,9.41621142 L27.5927321,10.9894257 L28.5320179,10.9894257 L27.2980893,9.34121142 C27.8414821,9.26460427 28.2321964,8.7794257 28.1909464,8.23228284 L28.1909464,8.23228284 Z" id="Fill-17" fill="#58595B"></path>
            </g>
        </g>
    </g>
</svg>