<?xml version="1.0" encoding="UTF-8"?>
<svg width="32px" height="20px" viewBox="0 0 32 20" version="1.1" xmlns="http://www.w3.org/2000/svg" xmlns:xlink="http://www.w3.org/1999/xlink">
    <!-- Generator: Sketch 47.1 (45422) - http://www.bohemiancoding.com/sketch -->
    <title>card-logo-mastercard</title>
    <desc>Created with Sketch.</desc>
    <defs></defs>
    <g id="Checkout-+-Added-&quot;Secure&quot;-Elements" stroke="none" stroke-width="1" fill="none" fill-rule="evenodd">
        <g id="Large/Medium-Checkout---Added-&quot;Trust&quot;-Elements" transform="translate(-571.000000, -991.000000)" fill-rule="nonzero">
            <g id="Form-Empty" transform="translate(221.000000, 268.000000)">
                <g id="Group-2" transform="translate(313.000000, 723.000000)">
                    <g id="card-logo-mastercard" transform="translate(37.000000, 0.000000)">
                        <path d="M29.6,2.02293374e-07 C28,3.53289176e-07 11.0601562,-3.20636746e-07 1.6,2.02293374e-07 C0.8,2.46515064e-07 0,0.800000202 0,1.6000002 L0,17.6000002 C-9.26e-08,19.2000002 0.8,20.0000002 2.4,20.0000002 C11.3246419,20.0000002 28,20.0000004 29.6,20.0000002 C31.2,20.0000002 32,19.2000002 32,17.6000002 L32,2.4000002 C32,0.800000202 31.2,2.02293374e-07 29.6,2.02293374e-07 Z" id="Rectangle-1" fill="#265697"></path>
                        <path d="M29.909047,10.1 C29.9103624,14.7475531 26.1839194,18.5158547 21.585906,18.5170894 C16.9877987,18.5182291 13.2597584,14.7518268 13.2585369,10.1042737 L13.2585369,10.1 C13.2573154,5.4525419 16.9837584,1.68405028 21.5815838,1.68281564 C26.1796912,1.68158101 29.9078256,5.44817318 29.909047,10.0957263 L29.909047,10.1 C29.909047,10.1 29.909047,10.0984804 29.909047,10.1 L29.909047,10.1 L29.909047,10.1 Z" id="path2268" fill="#DFAC16"></path>
                        <path d="M10.3625101,1.685 C5.79174496,1.71434637 2.09085906,5.47305586 2.09085906,10.1 C2.09085906,14.7449888 5.8205906,18.514905 10.4161611,18.514905 C12.5730067,18.514905 14.5390201,17.6840894 16.0184161,16.3223799 C16.0183221,16.3223799 16.0181342,16.3221899 16.0177584,16.322 L16.0195436,16.322 C16.3224698,16.0429721 16.6050067,15.7419106 16.8647114,15.420905 L15.1590604,15.420905 C14.931302,15.1428268 14.7243087,14.853067 14.5383624,14.554095 L17.4800537,14.554095 C17.658953,14.2647151 17.8209396,13.9642235 17.964698,13.653 L14.0526846,13.653 C13.9193557,13.364095 13.8035973,13.0686369 13.7047517,12.768905 L18.3130067,12.768905 C18.5907517,11.9301117 18.7414631,11.0327207 18.7414631,10.099905 C18.7414631,9.48144692 18.6751275,8.87846928 18.5495973,8.29790502 L13.4603624,8.29790502 C13.5234094,7.9991229 13.6029933,7.70394972 13.6978926,7.41390502 L18.3078389,7.41390502 C18.2047651,7.10524582 18.0850604,6.80446928 17.9489128,6.51290502 L14.0522148,6.51290502 C14.1927785,6.2093743 14.3520403,5.91410614 14.529906,5.629 L17.4694362,5.629 C17.2738121,5.31397766 17.0573289,5.01301118 16.8232752,4.72790502 L15.1843356,4.72790502 C15.437745,4.42646368 15.7167114,4.14259218 16.0195436,3.87790502 C14.5400537,2.51600558 12.5734765,1.685 10.4161611,1.685 C10.3982148,1.685 10.3804564,1.68490503 10.3625101,1.685 C10.3625101,1.685 10.3804564,1.68490503 10.3625101,1.685 L10.3625101,1.685 L10.3625101,1.685 Z" id="path1350" fill="#BF3126"></path>
                        <path d="M13.409906,12.2424749 L13.5208725,11.4808939 C13.4602685,11.4808939 13.3711007,11.5071061 13.2924564,11.5071061 C12.9838926,11.5071061 12.9498792,11.3412849 12.9695168,11.218676 L13.2187919,9.66474302 L13.687745,9.66474302 L13.8009664,8.82234078 L13.3587919,8.82234078 L13.4488054,8.29847486 L12.5623893,8.29847486 C12.5428456,8.31822906 12.0391275,11.2447933 12.0391275,11.6011285 C12.0391275,12.1286983 12.3321879,12.3636592 12.7454228,12.3598603 C13.0690201,12.3571061 13.3210201,12.2665978 13.409906,12.2424749 C13.409906,12.2424749 13.3210201,12.2665978 13.409906,12.2424749 L13.409906,12.2424749 L13.409906,12.2424749 Z" id="path4157" fill="#FFFFFF"></path>
                        <path d="M13.6907517,10.7904469 C13.6907517,12.0566145 14.5175973,12.357486 15.2220134,12.357486 C15.8722148,12.357486 16.1583221,12.2105642 16.1583221,12.2105642 L16.3144832,11.3464134 C16.3144832,11.3464134 15.8198792,11.5666536 15.3731946,11.5666536 C14.4213826,11.5666536 14.5880671,10.8493296 14.5880671,10.8493296 L16.3894631,10.8493296 C16.3894631,10.8493296 16.5057852,10.2687654 16.5057852,10.0321899 C16.5057852,9.44184358 16.2150738,8.72252514 15.2418389,8.72252514 C14.3505369,8.72271508 13.6907517,9.69342458 13.6907517,10.7904469 C13.6907517,10.7904469 13.6907517,9.69342458 13.6907517,10.7904469 L13.6907517,10.7904469 L13.6907517,10.7904469 Z M15.2452215,9.52494414 C15.7454631,9.52494414 15.6531946,10.093162 15.6531946,10.1391285 L14.6690604,10.1391285 C14.6690604,10.0804358 14.7620805,9.52494414 15.2452215,9.52494414 C15.2452215,9.52494414 14.7620805,9.52494414 15.2452215,9.52494414 L15.2452215,9.52494414 L15.2452215,9.52494414 Z" id="path4155" fill="#FFFFFF"></path>
                        <path d="M20.8583758,12.242095 L21.0169798,11.2653073 C21.0169798,11.2653073 20.5820402,11.4857374 20.2835302,11.4857374 C19.6547517,11.4857374 19.4025638,11.0004302 19.4025638,10.4790335 C19.4025638,9.4213296 19.9435838,8.83943576 20.5458658,8.83943576 C20.9975302,8.83943576 21.3600268,9.09576536 21.3600268,9.09576536 L21.5047248,8.1467095 C21.5047248,8.1467095 20.9671812,7.92684916 20.5064026,7.92684916 C19.4830872,7.92684916 18.4875839,8.82414526 18.4875839,10.5093296 C18.4875839,11.6267709 19.0251275,12.3647989 20.0829262,12.3647989 C20.382,12.3648939 20.8583758,12.242095 20.8583758,12.242095 L20.8583758,12.242095 L20.8583758,12.242095 L20.8583758,12.242095 Z" id="path4151" fill="#FFFFFF"></path>
                        <path d="M8.53461744,8.73648604 C7.92679194,8.73648604 7.46084564,8.93393296 7.46084564,8.93393296 L7.33221476,9.70577094 C7.33221476,9.70577094 7.71679194,9.5478324 8.2981208,9.5478324 C8.62820134,9.5478324 8.86967786,9.58534636 8.86967786,9.85649162 C8.86967786,10.0211732 8.84008054,10.0819553 8.84008054,10.0819553 C8.84008054,10.0819553 8.57971812,10.0599218 8.45916778,10.0599218 C7.69255034,10.0599218 6.88722148,10.3906145 6.88722148,11.3876313 C6.88722148,12.1732402 7.41555704,12.3534972 7.74300672,12.3534972 C8.36840268,12.3534972 8.63797316,11.9433128 8.652349,11.9420782 L8.62312752,12.2844525 L9.403651,12.2844525 L9.75186578,9.81698324 C9.75186578,8.77020112 8.84844296,8.73648604 8.53461744,8.73648604 L8.53461744,8.73648604 L8.53461744,8.73648604 L8.53461744,8.73648604 Z M8.72451006,10.7455251 C8.74142282,10.8962458 8.63102014,11.602743 8.09732886,11.602743 C7.82202684,11.602743 7.75042954,11.3901955 7.75042954,11.2644525 C7.75042954,11.0192346 7.88225504,10.7248212 8.53179866,10.7248212 C8.6828859,10.7250112 8.69904698,10.7413464 8.72451006,10.7455251 C8.72451006,10.7455251 8.69904698,10.7413464 8.72451006,10.7455251 L8.72451006,10.7455251 L8.72451006,10.7455251 Z" id="path4149" fill="#FFFFFF"></path>
                        <path d="M10.5814362,12.3354525 C10.7811007,12.3354525 11.9225235,12.3867374 11.9225235,11.1962626 C11.9225235,10.0832849 10.8659463,10.3031453 10.8659463,9.85601676 C10.8659463,9.63340224 11.0381745,9.56331284 11.3529396,9.56331284 C11.477906,9.56331284 11.958698,9.60348604 11.958698,9.60348604 L12.0705101,8.81236872 C12.0705101,8.81246368 11.7593154,8.74199442 11.2526846,8.74199442 C10.5969396,8.74199442 9.93132886,9.0065866 9.93132886,9.91186034 C9.93132886,10.9376536 11.0411812,10.8347039 11.0411812,11.2668268 C11.0411812,11.555257 10.7311141,11.5787151 10.4921745,11.5787151 C10.0786577,11.5787151 9.7062953,11.4353073 9.70497986,11.4421453 L9.58677852,12.2252849 C9.60820134,12.231933 9.83783892,12.3354525 10.5814362,12.3354525 C10.5814362,12.3354525 9.83783892,12.3354525 10.5814362,12.3354525 L10.5814362,12.3354525 L10.5814362,12.3354525 Z" id="path4145" fill="#FFFFFF"></path>
                        <path d="M28.200859,8.02656984 L28.009651,9.22578212 C28.009651,9.22578212 27.676,8.75994414 27.1536778,8.75994414 C26.34149,8.75994414 25.66451,9.74974302 25.66451,10.8870335 C25.66451,11.6211676 26.0255974,12.340486 26.763745,12.340486 C27.2947114,12.340486 27.5890872,11.9662961 27.5890872,11.9662961 L27.550094,12.2858771 L28.4122684,12.2858771 L29.0894362,8.02514526 L28.200859,8.02656984 L28.200859,8.02656984 L28.200859,8.02656984 L28.200859,8.02656984 Z M27.7892214,10.3647821 C27.7892214,10.8380279 27.5574228,11.470162 27.0768188,11.470162 C26.7578256,11.470162 26.6083356,11.1994916 26.6083356,10.7746816 C26.6083356,10.0800559 26.9169932,9.62172068 27.3064564,9.62172068 C27.6255436,9.6216257 27.7892214,9.84319554 27.7892214,10.3647821 C27.7892214,10.3647821 27.7892214,9.84319554 27.7892214,10.3647821 L27.7892214,10.3647821 L27.7892214,10.3647821 Z" id="path4139" fill="#FFFFFF"></path>
                        <polygon id="path4133" fill="#FFFFFF" points="3.7350604 12.289581 4.27467114 9.0728771 4.3538792 12.289581 4.96461744 12.289581 6.1038792 9.0728771 5.59922148 12.289581 6.50668456 12.289581 7.20555704 8.02315084 5.80226846 8.02315084 4.928349 10.6408659 4.88287248 8.02315084 3.58932886 8.02315084 2.88040268 12.289581 3.7350604 12.289581 3.7350604 12.289581"></polygon>
                        <path d="M17.3922953,12.2954693 C17.6503087,10.8123855 17.6981342,9.60813966 18.3138523,9.82856984 C18.4216242,9.25455866 18.5256376,9.03251396 18.6432752,8.78957542 C18.6432752,8.78957542 18.5881208,8.77789386 18.4723624,8.77789386 C18.0753826,8.77789386 17.7812886,9.32607262 17.7812886,9.32607262 L17.8603087,8.8226257 L17.0349664,8.8226257 L16.4820134,12.2954693 L17.3922953,12.2954693 L17.3922953,12.2954693 L17.3922953,12.2954693 L17.3922953,12.2954693 Z" id="path4131" fill="#FFFFFF"></path>
                        <path d="M22.90371,8.73648604 C22.2958846,8.73648604 21.8299382,8.93393296 21.8299382,8.93393296 L21.7014014,9.70577094 C21.7014014,9.70577094 22.0859786,9.5478324 22.6673074,9.5478324 C22.997388,9.5478324 23.2386766,9.58534636 23.2386766,9.85649162 C23.2386766,10.0211732 23.2092672,10.0819553 23.2092672,10.0819553 C23.2092672,10.0819553 22.9489046,10.0599218 22.8282604,10.0599218 C22.061737,10.0599218 21.256408,10.3906145 21.256408,11.3876313 C21.256408,12.1732402 21.7846496,12.3534972 22.1120994,12.3534972 C22.7374954,12.3534972 23.0070658,11.9433128 23.0213476,11.9420782 L22.992314,12.2844525 L23.7728376,12.2844525 L24.1209584,9.81698324 C24.1210524,8.77020112 23.2175356,8.73648604 22.90371,8.73648604 L22.90371,8.73648604 L22.90371,8.73648604 L22.90371,8.73648604 Z M23.0938846,10.7455251 C23.1107974,10.8962458 23.0003006,11.602743 22.4664214,11.602743 C22.1911194,11.602743 22.11971,11.3901955 22.11971,11.2644525 C22.11971,11.0192346 22.2515356,10.7248212 22.9009852,10.7248212 C23.0520724,10.7250112 23.0681396,10.7413464 23.0938846,10.7455251 C23.0938846,10.7455251 23.0681396,10.7413464 23.0938846,10.7455251 L23.0938846,10.7455251 L23.0938846,10.7455251 Z" id="path4149_1_" fill="#FFFFFF"></path>
                        <path d="M24.8343476,12.2954693 C25.092455,10.8123855 25.1402806,9.60813966 25.7558108,9.82856984 C25.8637704,9.25455866 25.9678778,9.03251396 26.0854214,8.78957542 C26.0854214,8.78957542 26.0302672,8.77789386 25.9145088,8.77789386 C25.5175288,8.77789386 25.2234348,9.32607262 25.2234348,9.32607262 L25.302455,8.8226257 L24.4771128,8.8226257 L23.9241598,12.2954693 L24.8343476,12.2954693 L24.8343476,12.2954693 L24.8343476,12.2954693 L24.8343476,12.2954693 Z" id="path4131_1_" fill="#FFFFFF"></path>
                    </g>
                </g>
            </g>
        </g>
    </g>
</svg>