<?xml version="1.0" encoding="UTF-8"?>
<svg width="32px" height="20px" viewBox="0 0 32 20" version="1.1" xmlns="http://www.w3.org/2000/svg" xmlns:xlink="http://www.w3.org/1999/xlink">
    <!-- Generator: Sketch 47.1 (45422) - http://www.bohemiancoding.com/sketch -->
    <title>card-logo-unknown</title>
    <desc>Created with Sketch.</desc>
    <defs></defs>
    <g id="Checkout-+-Added-&quot;Secure&quot;-Elements" stroke="none" stroke-width="1" fill="none" fill-rule="evenodd">
        <g id="Large/Medium-Checkout---Added-&quot;Trust&quot;-Elements" transform="translate(-645.000000, -991.000000)" fill-rule="nonzero" fill="#434A54">
            <g id="Form-Empty" transform="translate(221.000000, 268.000000)">
                <g id="Group-2" transform="translate(313.000000, 723.000000)">
                    <g id="card-logo-unknown" transform="translate(111.000000, 0.000000)">
                        <path d="M29.6512665,0 L2.34873346,0 C1.05157108,0 -1.00535899e-14,1.04145065 -1.00535899e-14,2.32618648 L-1.00535899e-14,4.2 L32,4.2 L32,2.32618648 C32,1.04153551 30.9484289,0 29.6512665,0 Z M-1.00535899e-14,17.4993199 C-1.00535899e-14,18.7698848 1.05157108,19.8 2.34873346,19.8 L29.6512665,19.8 C30.9484289,19.8 32,18.7698848 32,17.4993199 L32,8.2 L-1.00535899e-14,8.2 L-1.00535899e-14,17.4993199 Z M23.8,11.2 L28.4,11.2 L28.4,12.6 L23.8,12.6 L23.8,11.2 Z M3.6,11.2 L13.8,11.2 L13.8,12.6 L3.6,12.6 L3.6,11.2 Z M3.6,14.4 L9.2,14.4 L9.2,15.8 L3.6,15.8 L3.6,14.4 Z" id="Shape"></path>
                    </g>
                </g>
            </g>
        </g>
    </g>
</svg>